<svg xmlns="http://www.w3.org/2000/svg" viewBox="0 0 500 500"><g id="freepik--Character--inject-464"><g id="freepik--character--inject-464"><g id="freepik--Bottom--inject-464"><path d="M345.9,388.21l-9.43-18.58-19,11.11,23.4,27.62s11.59-1.07,13.46-7.12S349.09,390.22,345.9,388.21Z" style="fill:#c8856a"></path><path d="M359.27,395.51a9.73,9.73,0,0,1,2.63,2.87c.77,1.14.53,6.64,1.26,9.19s1.29,3.23,2.51,6.43c1.35,3.54,3.85,6.78,1,15.89s-7.35,13.46-11.17,15.68a10,10,0,0,1-4.6,1.12s-5-1.89-4.24-4.85S359.27,395.51,359.27,395.51Z" style="fill:#263238"></path><path d="M337.32,405.51c.14.94,1.45,2.38,2,3.15,1.8,2.57,2.62,6.06,3.24,9.1,2.95,14.42-2.78,21.75,5,27.16,2.25,1.42,6.92,1,14-8.06,3.63-4.64,5.69-14.19,4.28-18.51s-3.35-7.14-4.26-10.46-.43-9.53-2.27-12.38a13.32,13.32,0,0,0-4.5-3.87c-1.38-.84-4.39-1.94-5.79-2.74s-2.18-1.71-3.08-.69l1.62,2c2.53,3.51,1.82,4,1.76,5.88a29.62,29.62,0,0,0,.94,5.94c-1.8-2.27-2.53-4.25-4.5-3.9s-2.2.25-5,2.89S337.2,404.68,337.32,405.51Z" style="fill:#455a64"></path><path d="M361.52,436.86c3.63-4.64,5.69-14.19,4.28-18.51a40.67,40.67,0,0,0-1.66-4.19c.06.29.14.59.18.84.09.56.17,1.12.22,1.68a12.91,12.91,0,0,1-.72,6.55c-.81,1.79-2.7,6.3-5.12,6.4-1.38.06-2.54-1.29-3.07-2.82-.22-.65-.59-2.4-.59-2.4a21.15,21.15,0,0,0-6.3,2.58c-3.52,2.32-3.4,2.84-3.4,2.84a9.27,9.27,0,0,1,.12,3.09,7.63,7.63,0,0,1-1.31,3.07,4.59,4.59,0,0,1-.9.72c.15,3.33,1,5.94,4.27,8.21C349.77,446.34,354.44,446,361.52,436.86Z" style="fill:#37474f"></path><path d="M342.54,417.76a48.19,48.19,0,0,1,.9,11.53c1.33,3.69,2.49,3.58,2.65,1.67s-2.39-9.85-4.29-16.41C342.09,415.63,342.33,416.73,342.54,417.76Z" style="fill:#37474f"></path><path d="M351.32,394.65a8.07,8.07,0,0,0-1.41-5.28c-.35-.16-.67-.32-.93-.47-1.52-.86-2.18-1.71-3.08-.69l1.62,2c2.53,3.51,1.82,4,1.76,5.88a29.62,29.62,0,0,0,.94,5.94c1.47,6.26,2.81,8.35,3.51,14.27s-.49,9.88.34,10.22,2.52-.34,2.83-5.08-1.79-12.7-3.26-16.47S351,397.17,351.32,394.65Z" style="fill:#37474f"></path><path d="M355.46,424.82a.64.64,0,0,1-.3.17c-4.15.85-6.36,1.9-9.45,5.54a.6.6,0,0,1-.83.06.59.59,0,0,1-.07-.83c3.26-3.84,5.7-5,10.11-5.93a.6.6,0,0,1,.7.46A.59.59,0,0,1,355.46,424.82Z" style="fill:#ebebeb"></path><path d="M354.71,419.89a.61.61,0,0,1-.29.17c-4.3,1-6.68,2.21-10,6a.58.58,0,0,1-.85.07.61.61,0,0,1-.07-.86c3.46-4,6-5.38,10.61-6.43a.6.6,0,0,1,.56,1Z" style="fill:#ebebeb"></path><path d="M354.82,414.46a.67.67,0,0,1-.33.18c-4.73,1.1-7.51,2.57-11.13,6.8a.67.67,0,0,1-.94.07.67.67,0,0,1-.07-.94c3.81-4.44,6.82-6.06,11.84-7.23a.67.67,0,0,1,.8.5A.69.69,0,0,1,354.82,414.46Z" style="fill:#ebebeb"></path><path d="M354,409.82a.6.6,0,0,1-.32.18c-4.64,1.07-7.33,2.48-10.88,6.63a.66.66,0,1,1-1-.85c3.73-4.35,6.67-5.92,11.59-7a.64.64,0,0,1,.78.49A.65.65,0,0,1,354,409.82Z" style="fill:#ebebeb"></path><path d="M352.33,405.3a.64.64,0,0,1-.32.18c-4.64,1.08-7.33,2.49-10.88,6.64a.66.66,0,0,1-1-.85c3.74-4.36,6.66-5.92,11.58-7.06a.65.65,0,0,1,.62,1.09Z" style="fill:#ebebeb"></path><polygon points="340.78 389.7 328.49 399.75 321.54 404.11 329.47 419.11 351.83 408.41 340.78 389.7" style="fill:#c8856a"></polygon><path d="M365.82,322.61s-44.73-7.42-63.87-7.29c-19.53.12-21.34,14.78-16.45,23.76,9.36,17.2,41.89,53.67,41.89,53.67s10.93-5,14.29-14.46l-7.43-17,23.36,7.48,11.92-8,1-6.09Z" style="fill:#90CAF9"></path><path d="M365.82,322.61s-44.73-7.42-63.87-7.29c-19.53.12-21.34,14.78-16.45,23.76,9.36,17.2,41.89,53.67,41.89,53.67s10.93-5,14.29-14.46l-7.43-17,23.36,7.48,11.92-8,1-6.09Z" style="opacity:0.4"></path><path d="M365.82,322.61l77.42,12.89s.77,18.53-6.52,35.13a37.85,37.85,0,0,1-29,22.12,215,215,0,0,1-23.42,1.9,58.25,58.25,0,0,1-12.24,7.21C365.93,404.3,339,415.6,339,415.6s-7.58-6.41-6.83-19.77l25.47-27.08c5.76-7,7.78-9.3,11-10.88C363.68,348.37,365.27,333.07,365.82,322.61Z" style="fill:#90CAF9"></path><path d="M365.82,322.61l77.42,12.89s.77,18.53-6.52,35.13a37.85,37.85,0,0,1-29,22.12,215,215,0,0,1-23.42,1.9,58.25,58.25,0,0,1-12.24,7.21C365.93,404.3,339,415.6,339,415.6s-7.58-6.41-6.83-19.77l25.47-27.08c5.76-7,7.78-9.3,11-10.88C363.68,348.37,365.27,333.07,365.82,322.61Z" style="opacity:0.30000000000000004"></path><g style="opacity:0.30000000000000004"><path d="M330.36,346.78a168.45,168.45,0,0,1,9.86,16.39l-6-1.9c-6.72-16-8.1-20.69-18.85-28.19C315.4,333.08,323.11,336,330.36,346.78Z"></path><path d="M390,385.67s.09,3.93-5.71,9a58.25,58.25,0,0,1-12.24,7.21C365.93,404.3,339,415.6,339,415.6s-1.47-.68-3.57-4.64c7-1.65,29.94-10.64,37.36-13.78C386,391.58,390,385.67,390,385.67Z"></path><path d="M361.46,364.21c-2.61,3.06-3.85,4.54-3.85,4.54l-3.74-1.23s6.63-7.21,10.9-11a14,14,0,0,1,2.45-1.92c-2.16-5.67-2.08-15-2.08-15a29.86,29.86,0,0,0,5.65,13.59,24.72,24.72,0,0,1,10.75-.12c7.49,1.25,29.2,4.95,29.2,4.95s-20.81-1.88-31.64-2.3S364.07,361.15,361.46,364.21Z"></path></g><path d="M293.36,411.92c-5.26,2.08-8.5,4.16-10.93,7.34s-3.18,6.39-.87,10.24,6.55,8.36,11.59,8.07,8.14-1.55,12.81-4.08Z" style="fill:#263238"></path><path d="M335.4,416.37c.08,1.58-6.57,4.72-13.47,8-7.4,3.53-9.22,5.83-15.26,8.8-6.9,3.4-9.52,3.6-14.88,2.11s-12-9.16-7.36-16.21c3.75-5.74,8.61-7.32,16-9.26a139.18,139.18,0,0,0,17.25-5.58c5.33-2.07,9.72-5.78,10.82-4.49-.76.36-6.33,3.8-5.28,4.74.26.48,1.05.33,2.42-.24a2.36,2.36,0,0,1,1.91-.09,3.62,3.62,0,0,1,1.38,1.66,38.56,38.56,0,0,1,1.67,4.22c.41,1,.24.41.63,1.4s1.25,2.76,1.14,3.77c-.06.61-.51.8-1,1.1s-1.12.66-1.57,1c-.17.13-.49.59-.39.82s1.13.2,1.53,0,1.07-.33,1.56-.51S334.18,416.94,335.4,416.37Z" style="fill:#455a64"></path><path d="M309,432c-1,.5-7.26,3.41-9.22,1.67-2.13-1.89,2.89-4.91,2.89-4.91s.77-4.72-4.93-11.68c-1,.77-5.11.73-5.06-1.69s7-5.4,7.06-5.44c-7.06,1.89-11.71,3.51-15.35,9.09-4.6,7.05,2,14.72,7.36,16.21s8,1.29,14.88-2.11C307.36,432.85,308.43,432.4,309,432Z" style="fill:#37474f"></path><path d="M302,428.33c-2.61.87-.82,3.25,3,2.48,5.73-1.16,10.5-4.41,16.88-6.43,6.9-3.29,13.93-6.36,13.48-8.1-1.23.46-3.88,1.56-3.88,1.56-.51.22-1.85.72-1.85.72-5.23,2.26-11,5.89-16.68,7.43C308,427.34,304.65,427.46,302,428.33Z" style="fill:#37474f"></path><path d="M298.16,418c2.39-1.38,2.8-2.57,7.49-4.72s12.62-6.76,17.52-9.62a64,64,0,0,0,5.32-3.93c-.81-.93-3.8-.08-6.79,1.81s-4.81,3.08-7.77,4.63c-5.76,3.46-12.32,5.79-15.61,7.91S295.76,419.4,298.16,418Z" style="fill:#37474f"></path><path d="M297.8,417.38a.74.74,0,0,0,.14.22,20.83,20.83,0,0,1,4.47,11.57.7.7,0,0,0,.66.65.58.58,0,0,0,.53-.67c-.73-7.92-4.65-12.22-4.87-12.46a.56.56,0,0,0-.84,0A.67.67,0,0,0,297.8,417.38Z" style="fill:#f0f0f0"></path><path d="M302.44,414a.76.76,0,0,0,.12.19,28.56,28.56,0,0,1,5.54,13.67.69.69,0,0,0,.67.62.57.57,0,0,0,.51-.69,29.48,29.48,0,0,0-5.9-14.47.56.56,0,0,0-.84-.06A.68.68,0,0,0,302.44,414Z" style="fill:#f0f0f0"></path><path d="M312.66,427.37a.68.68,0,0,0,.55.42.58.58,0,0,0,.58-.63c-.28-8.38-5.68-16.24-5.93-16.51a.55.55,0,0,0-.84,0,.72.72,0,0,0,.05.93c.06.06,5.28,7.74,5.52,15.54A.89.89,0,0,0,312.66,427.37Z" style="fill:#f0f0f0"></path><path d="M317,424.63a.64.64,0,0,0,.54.41.56.56,0,0,0,.59-.6,24.71,24.71,0,0,0-6.25-15.68.56.56,0,0,0-.84,0,.72.72,0,0,0,.11.93,23.73,23.73,0,0,1,5.78,14.61A1,1,0,0,0,317,424.63Z" style="fill:#f0f0f0"></path><path d="M322.51,422.28a.66.66,0,0,0,.53.41.55.55,0,0,0,.59-.6c0-8.71-6.16-15.46-6.44-15.73a.55.55,0,0,0-.83,0,.71.71,0,0,0,.08.93c.06.06,6,6.59,6,14.68A.73.73,0,0,0,322.51,422.28Z" style="fill:#ebebeb"></path></g><g id="freepik--Top--inject-464"><g id="freepik--Arm--inject-464"><path d="M364.84,256.66c-3.69,5.52-17.74,24.71-17.74,24.71-4.11-4.75-9-10.6-13.11-15.67-5.44-6.65-7.6-8-10.49-18.4-.72-2.61-2.71-5.55-3.66-7.12a22.57,22.57,0,0,1-2.74-7.67c-.15-1.33-3.55-.95-4.18,3.34-.42,2.21.31,4.39.31,6.58,0,.67.37,2.08-.47,2-5.07-.73-8.8-6.49-14.86-10.57-2.19-1.46-7.79-3-9,.2-.1.77.45,1.3.66,2a.86.86,0,0,1,0,.28,4.38,4.38,0,0,1-.1,1c-.14.64-.41,1.24-.54,1.88a4.63,4.63,0,0,0,.34,2.89,11.67,11.67,0,0,1,1,2,7.33,7.33,0,0,0,.54,4,15.69,15.69,0,0,0,1.93,3.09,11,11,0,0,1,1,2.16,12.64,12.64,0,0,0,2.47,3.27,50.92,50.92,0,0,0,11,9.22c1.87,1.09,3.86,2,5.63,3.27a16.65,16.65,0,0,1,3.49,3.32,36.51,36.51,0,0,1,3.19,5.21l0,.1c8.12,14.09,8.84,19.29,17.39,30.45,7.22,8.93,12.25,5.14,23.15-5.36,13.4-12.91,20.57-20.34,20.57-20.34L384,239.59C376.08,242.24,368.54,251.14,364.84,256.66Z" style="fill:#c8856a"></path><path d="M313.38,248a14.49,14.49,0,0,0,3.75,12.45C312.5,259.21,310.63,253.24,313.38,248Z" style="fill:#af6152"></path><path d="M388.1,238.26c-7.44,1.26-13.23,4.2-22.59,16.58s-18.41,25.87-18.41,25.87l-7.53-8.24c2.39,1.38,2,11.93-1.87,16.71a16.26,16.26,0,0,1-9.5,5.55,104.37,104.37,0,0,0,7.31,12.07c3.83,5.25,6.28,6.59,9.56,6.59s6.88-1.89,15.44-10,22.15-21.12,22.15-21.12Z" style="fill:#90CAF9"></path><path d="M388.1,238.26c-7.44,1.26-13.23,4.2-22.59,16.58s-18.41,25.87-18.41,25.87l-7.53-8.24c2.39,1.38,2,11.93-1.87,16.71a16.26,16.26,0,0,1-9.5,5.55,104.37,104.37,0,0,0,7.31,12.07c3.83,5.25,6.28,6.59,9.56,6.59s6.88-1.89,15.44-10,22.15-21.12,22.15-21.12Z" style="fill:#fff;opacity:0.55"></path><path d="M347.1,280.71c4,4.4,6.79,12.07,6.51,16,1.67-4.63,0-12.51-5-18.2Z" style="fill:#90CAF9;opacity:0.35000000000000003"></path><path d="M331.47,300.37a16.11,16.11,0,0,0,2.74-.85,15.31,15.31,0,0,0,4.87-3.18,16.87,16.87,0,0,0,5-9.72c0-.19.23-.13.22,0a15.61,15.61,0,0,1-4.93,10.61,16.9,16.9,0,0,1-5.15,3.21,17.42,17.42,0,0,1-2.36.73l-.49-.82Z" style="fill:#90CAF9;opacity:0.35000000000000003"></path></g><g id="freepik--Chest--inject-464"><path d="M375.51,265.28c1-20.79,5.74-26.53,16.29-27.7l17.4-1.83c5.17,1.06,22.94,6.72,28.92,8.8,3.86,1.33,5.52,9.52,6.34,22.34.68,10.41.78,19.14.43,33.53-.28,12.07-.58,25.81-4.26,42.58-14.41,5.46-56,.25-72.62-18.76,1.33-4.3,6.66-12.07,7.5-20.71C375,285.43,375.19,271.81,375.51,265.28Z" style="fill:#263238"></path><path d="M438.51,244.28l-13-4.58s-2.35,5.47-7.39,16-5.21,15.24-5.68,33.53-3.82,50.44-6,57.86c8.06,1.12,15,12.8,35.74,9.18,0,0,4.35-21.18,5-57.27C447.57,280.25,447.67,249.56,438.51,244.28Z" style="fill:#90CAF9"></path><path d="M438.51,244.28l-13-4.58s-2.35,5.47-7.39,16-5.21,15.24-5.68,33.53-3.82,50.44-6,57.86c8.06,1.12,15,12.8,35.74,9.18,0,0,4.35-21.18,5-57.27C447.57,280.25,447.67,249.56,438.51,244.28Z" style="fill:#fff;opacity:0.35000000000000003"></path><path d="M413.17,272.78c2-16.42,8.91-17.27,10.5-11.88,6-8.94,6.23-16.62,6.13-19.69-1.63-2.82-2.9-5.19-3.44-6.26-.72-1.4-1.54-1.11-1.54-1.11l-.05,4.17s-1,4.78-5.86,10.81C415.3,253.26,414,258.93,413.17,272.78Z" style="fill:#90CAF9"></path><path d="M413.17,272.78c2-16.42,8.91-17.27,10.5-11.88,6-8.94,6.23-16.62,6.13-19.69-1.63-2.82-2.9-5.19-3.44-6.26-.72-1.4-1.54-1.11-1.54-1.11l-.05,4.17s-1,4.78-5.86,10.81C415.3,253.26,414,258.93,413.17,272.78Z" style="fill:#fff;opacity:0.55"></path><path d="M401.33,238.16c-7.4,2.88-12.83,11.1-14.58,22.47s-3.17,40.39-4.4,49-6.71,23.54-6.71,23.54-9.09-3.74-11.6-10.87c4.18-5.45,8.06-13,8.78-20.18s.06-29.95,1.14-38.68,2-20.77,12.34-24.8c4.45-1.74,14.95-2.42,14.95-2.42Z" style="fill:#90CAF9"></path><path d="M401.33,238.16c-7.4,2.88-12.83,11.1-14.58,22.47s-3.17,40.39-4.4,49-6.71,23.54-6.71,23.54-9.09-3.74-11.6-10.87c4.18-5.45,8.06-13,8.78-20.18s.06-29.95,1.14-38.68,2-20.77,12.34-24.8c4.45-1.74,14.95-2.42,14.95-2.42Z" style="fill:#fff;opacity:0.35000000000000003"></path><path d="M386,267.19c1-8.36,5.77-23.33,14.83-26.38a7.19,7.19,0,0,0,.54-2.65l-.08-4.35a37,37,0,0,0-7.73,3.77c-3.91,2.53-10.66,10.61-12.4,17.12C385,251.37,386.6,256.79,386,267.19Z" style="fill:#90CAF9"></path><path d="M386,267.19c1-8.36,5.77-23.33,14.83-26.38a7.19,7.19,0,0,0,.54-2.65l-.08-4.35a37,37,0,0,0-7.73,3.77c-3.91,2.53-10.66,10.61-12.4,17.12C385,251.37,386.6,256.79,386,267.19Z" style="fill:#fff;opacity:0.55"></path><g id="freepik--Head--inject-464"><path d="M424.76,227.31c1-5.85,6.87-11.93,9.52-17,2.55-4.91,4.08-8.72,3.82-13.35-.16-2.74-1.87-6.46-3.9-7.25,2.4-10.17-5.22-14.94-9.27-15.92a43.74,43.74,0,0,1-5.61-1.6c-2.2-.93-2.69-2.71-4.46-4.23-3.05-2.61-8.21-2.7-10.19,1.23-2-2.65-4.79-2.59-8-1.8a5.45,5.45,0,0,0-4.21,6.15c-4.26-2.41-8.2.58-8.6,3.09-.3,1.85.09,3.42-1.13,5.07-1.38,1.87-4,1.82-4.74.31-.45,2.63.57,4.64,3.42,4.51a6,6,0,0,0-.77,5,5.47,5.47,0,0,0,4.92,3.79c.29,1.45.35,2.77,1.25,4a9.49,9.49,0,0,0,3.34,3.05c4.31,2.08,9.09,2.77,13.74,3.76l5.52,1.17c.32.07,2,.18,2.18.46Z" style="fill:#263238"></path><path d="M431.88,219.77c-4.12,2.44-6.9-.23-6.9-.23l-.24,19.21c-3.25,8.24-16.27,12.36-23.51,12.12a23.67,23.67,0,0,1,.1-12.71l-.08-5.29a55.79,55.79,0,0,1-7-.34c-4.58-.65-8-4.39-9.3-9.37a51.5,51.5,0,0,1-.47-19.7,17,17,0,0,0,.27-4.82c-.42-4.27.36-6.75,1.48-10.33,5.07-4,16.76-5.37,27.62,1.3-1.29,6.48,1.2,11.63,5.91,14.12-.23,1.75-.47,6.17,2.4,6.1,2.08-.05,2.23-2.65,4.37-4.93s7.1-2.87,9,.52C438.24,210.15,436.41,217.1,431.88,219.77Z" style="fill:#c8856a"></path><path d="M401.25,232.87c7.28-.82,12.81-1.59,16.63-6.84a45.32,45.32,0,0,0,4.43-8.61s-.77,6.44-3.17,10.8c-1.85,3.36-6.44,6.14-17.86,7.07Z" style="fill:#af6152"></path><path d="M404.91,204.69a2.05,2.05,0,1,0,2-2.16A2.1,2.1,0,0,0,404.91,204.69Z" style="fill:#263238"></path><path d="M405.5,198l4.63,1.91a2.64,2.64,0,0,0-1.41-3.36A2.46,2.46,0,0,0,405.5,198Z" style="fill:#263238"></path><path d="M387.84,199.25l4.73-1.73a2.41,2.41,0,0,0-3.15-1.55A2.64,2.64,0,0,0,387.84,199.25Z" style="fill:#263238"></path><path d="M389,204.06a2,2,0,1,0,1.83-2.32A2.07,2.07,0,0,0,389,204.06Z" style="fill:#263238"></path><path d="M391.89,211.59l7.11,3.19,2.25-14C398.6,199.86,395.17,206.27,391.89,211.59Z" style="fill:#af6152"></path><path d="M405.68,217.71l-8.58,1.8a4.3,4.3,0,0,0,5.1,3.53A4.6,4.6,0,0,0,405.68,217.71Z" style="fill:#af6152"></path><path d="M404.64,219.1a4.69,4.69,0,0,1,1.06,0,4.55,4.55,0,0,1-3.5,3.92,4.41,4.41,0,0,1-1.4,0A4,4,0,0,1,404.64,219.1Z" style="fill:#ffa8a7"></path></g></g><g id="freepik--arm--inject-464"><g id="freepik--Laptop--inject-464"><path d="M316.88,359.91a13.43,13.43,0,0,1,2.09-2.45c8-7.4,23-17.19,35.8-25.33l58.09,33.55a.54.54,0,0,1,0,.93L370.67,391Z" style="opacity:0.15"></path><path d="M299.27,342.85v.94a3.87,3.87,0,0,0,1.93,3.35l67.54,39a3.92,3.92,0,0,0,1.93.51,3.87,3.87,0,0,0,1.94-.52l36.82-21.19a3.86,3.86,0,0,0,1.92-3.34v-1.3h0a.5.5,0,0,1-.25.43l-40.43,23.35Z" style="fill:#37474f"></path><path d="M370.67,384.08v2.57a3.92,3.92,0,0,1-1.93-.51l-67.54-39a3.87,3.87,0,0,1-1.94-3.35v-.94Z" style="fill:#263238"></path><path d="M299.26,342.85l40.05-23.12a2.32,2.32,0,0,1,2.31,0l69.48,40.12a.52.52,0,0,1,0,.89l-40.43,23.34Z" style="fill:#455a64"></path><polygon points="371.04 380.68 392.64 368.22 329.48 331.75 307.76 344.15 371.04 380.68" style="fill:#37474f"></polygon><polygon points="307.76 344.15 308.59 344.62 329.48 332.7 391.81 368.7 392.64 368.22 329.48 331.75 307.76 344.15" style="fill:#263238"></polygon><polygon points="381.66 346.02 381.26 346.25 370.67 352.36 351.84 341.49 351.45 341.27 362.44 334.93 381.66 346.02" style="fill:#263238"></polygon><polygon points="381.26 346.25 370.67 352.36 351.84 341.49 362.44 335.38 381.26 346.25" style="fill:#37474f"></polygon><g id="freepik--arm--inject-464"><path d="M360.38,350.62c3.39-3.36,8.3-8,12.43-9.38a23,23,0,0,1,2.91-.91,34,34,0,0,1-4.25-.84,7.51,7.51,0,0,1-3.58-2.38c-.36-.46-.62-1.2-.16-1.57a1,1,0,0,1,.59-.22c3.09-.09,5.53-.57,8.34-.78a12,12,0,0,1,3.79.07c1.15.32,2.3.65,3.43,1,5.14,1.78,10,1.3,17.08-1.94s32.64-19,32.64-19l-5.42,30L408,352.51h0l-.21.08c-1.61.6-3.07,1.86-6.93,3.05-4.58,1.4-10.43-.26-14.41-.47S375.7,356.8,372,358.29s-8.11-4.18-10-3.5S357,354,360.38,350.62Z" style="fill:#c8856a"></path><path d="M377.43,338.14a13.88,13.88,0,0,1,5.63.92,30.27,30.27,0,0,0-7.34,1.27,34,34,0,0,1-4.25-.84,7.85,7.85,0,0,1-3.25-2C370.44,339,374.75,338.42,377.43,338.14Z" style="fill:#af6152"></path></g><path d="M369.58,384.65a4.59,4.59,0,0,1-3.94-.3l-67.25-38.83a4.57,4.57,0,0,1-2.22-3.2l-7.37-43.91a4.74,4.74,0,0,1-.06-.75,4.6,4.6,0,0,1,1.35-3.25L360,334.77a3.37,3.37,0,0,1,1.64,2.36Z" style="fill:#263238"></path><path d="M370.67,384.08l-.46.27a6.09,6.09,0,0,1-.63.3l-8-47.52a3.37,3.37,0,0,0-1.64-2.36l-69.89-40.36a4.83,4.83,0,0,1,.94-.71l70,40.43a3.4,3.4,0,0,1,1.64,2.37Z" style="fill:#455a64"></path><path d="M361,335.66l1.08-.62a3.32,3.32,0,0,1,.64,1.46l8,47.58-.46.27a6.09,6.09,0,0,1-.63.3l-8-47.52A3.41,3.41,0,0,0,361,335.66Z" style="fill:#37474f"></path><path d="M331.71,344.12c-.5-2.94-3.53-6.84-6.78-8.72s-5.49-1-5,1.92,3.53,6.85,6.78,8.72S332.2,347.06,331.71,344.12Z" style="fill:#90CAF9"></path></g><path d="M414,328.72c10.77-7.8,19.64-14,19.64-14l-3.08-33.1s-2.33-16.37,1.36-25.64c3.83-9.61,7.61-11,7.61-11a37.58,37.58,0,0,1,10.42,5.85c4.17,3.65,6.16,12.13,7.17,24.09.88,10.5,2.54,36.83,2.8,43,.34,7.8,0,14.06-8.28,17.83-8.71,4-34.82,12.9-34.82,12.9Z" style="fill:#c8856a"></path><path d="M438.51,244.28c8.47,2.71,12.79,4.27,16.37,14.19s3.45,28.14,4.54,42.74,1.9,24.13-.44,28.74c-1.28,2.53-3.62,4.85-12,8s-16.45,6-16.45,6-.8-12.9-10-21.58l12.64-7.69s-2.91-29.81-3.61-38S428,251.34,438.51,244.28Z" style="fill:#90CAF9"></path><path d="M438.51,244.28c8.47,2.71,12.79,4.27,16.37,14.19s3.45,28.14,4.54,42.74,1.9,24.13-.44,28.74c-1.28,2.53-3.62,4.85-12,8s-16.45,6-16.45,6-.8-12.9-10-21.58l12.64-7.69s-2.91-29.81-3.61-38S428,251.34,438.51,244.28Z" style="fill:#fff;opacity:0.55"></path><path d="M433.16,314.73c4.94-2.33,14.76-.23,16.86,1.54-2.5-4.32-9.18-5.87-17.19-4.87Z" style="fill:#90CAF9;opacity:0.35000000000000003"></path><path d="M430,323.72A11.87,11.87,0,0,1,433.6,328a21,21,0,0,1,2,5,26.82,26.82,0,0,1,.85,6.17,26.48,26.48,0,0,1,0,2.67l-.94.34a26,26,0,0,0-.73-8.86,23.17,23.17,0,0,0-2-4.95,47.26,47.26,0,0,0-3-4.45C429.81,323.87,429.83,323.63,430,323.72Z" style="fill:#90CAF9;opacity:0.35000000000000003"></path></g></g></g></g></svg>